<svg width="220" height="59" viewBox="0 0 220 59" fill="none" xmlns="http://www.w3.org/2000/svg">
<rect width="219.119" height="59" rx="29.5" fill="#ED7D31"/>
<path d="M66.635 42V20.1818H74.2628C75.7827 20.1818 77.0362 20.4446 78.0235 20.9702C79.0107 21.4886 79.7458 22.1882 80.2287 23.0689C80.7117 23.9425 80.9531 24.9119 80.9531 25.9773C80.9531 26.9148 80.7862 27.6889 80.4524 28.2997C80.1257 28.9105 79.6925 29.3935 79.1527 29.7486C78.6201 30.1037 78.0412 30.3665 77.4162 30.5369V30.75C78.0838 30.7926 78.755 31.027 79.4297 31.4531C80.1044 31.8793 80.6691 32.4901 81.1236 33.2855C81.5781 34.081 81.8054 35.054 81.8054 36.2045C81.8054 37.2983 81.5568 38.282 81.0597 39.1555C80.5625 40.0291 79.7777 40.7216 78.7053 41.233C77.6328 41.7443 76.2372 42 74.5185 42H66.635ZM69.277 39.6562H74.5185C76.2443 39.6562 77.4695 39.3224 78.1939 38.6548C78.9254 37.9801 79.2912 37.1634 79.2912 36.2045C79.2912 35.4659 79.103 34.7841 78.7266 34.1591C78.3502 33.527 77.8139 33.0227 77.1179 32.6463C76.4219 32.2628 75.598 32.071 74.6463 32.071H69.277V39.6562ZM69.277 29.7699H74.1776C74.973 29.7699 75.6904 29.6136 76.3296 29.3011C76.9759 28.9886 77.4872 28.5483 77.8637 27.9801C78.2472 27.4119 78.4389 26.7443 78.4389 25.9773C78.4389 25.0185 78.1051 24.2053 77.4375 23.5376C76.7699 22.8629 75.7117 22.5256 74.2628 22.5256H69.277V29.7699ZM92.4535 42.3409C90.9762 42.3409 89.6801 41.9893 88.565 41.2862C87.4571 40.5831 86.5906 39.5994 85.9656 38.3352C85.3477 37.071 85.0387 35.5937 85.0387 33.9034C85.0387 32.1989 85.3477 30.7109 85.9656 29.4396C86.5906 28.1683 87.4571 27.1811 88.565 26.478C89.6801 25.7749 90.9762 25.4233 92.4535 25.4233C93.9308 25.4233 95.2234 25.7749 96.3313 26.478C97.4464 27.1811 98.3129 28.1683 98.9308 29.4396C99.5558 30.7109 99.8683 32.1989 99.8683 33.9034C99.8683 35.5937 99.5558 37.071 98.9308 38.3352C98.3129 39.5994 97.4464 40.5831 96.3313 41.2862C95.2234 41.9893 93.9308 42.3409 92.4535 42.3409ZM92.4535 40.0824C93.5757 40.0824 94.499 39.7947 95.2234 39.2195C95.9478 38.6442 96.484 37.8878 96.8321 36.9503C97.1801 36.0128 97.3541 34.9972 97.3541 33.9034C97.3541 32.8097 97.1801 31.7905 96.8321 30.8459C96.484 29.9013 95.9478 29.1378 95.2234 28.5554C94.499 27.973 93.5757 27.6818 92.4535 27.6818C91.3313 27.6818 90.408 27.973 89.6836 28.5554C88.9592 29.1378 88.423 29.9013 88.075 30.8459C87.7269 31.7905 87.5529 32.8097 87.5529 33.9034C87.5529 34.9972 87.7269 36.0128 88.075 36.9503C88.423 37.8878 88.9592 38.6442 89.6836 39.2195C90.408 39.7947 91.3313 40.0824 92.4535 40.0824ZM106.22 38.2926L114.104 25.6364H117.002V42H114.487V29.3438L106.647 42H103.706V25.6364H106.22V38.2926ZM112.442 20.1818H114.786C114.786 21.3324 114.388 22.2734 113.593 23.005C112.797 23.7365 111.718 24.1023 110.354 24.1023C109.012 24.1023 107.943 23.7365 107.147 23.005C106.359 22.2734 105.965 21.3324 105.965 20.1818H108.308C108.308 20.7358 108.461 21.2223 108.767 21.6413C109.079 22.0604 109.608 22.2699 110.354 22.2699C111.1 22.2699 111.632 22.0604 111.952 21.6413C112.279 21.2223 112.442 20.7358 112.442 20.1818ZM119.38 27.9801V25.6364H132.675V27.9801H127.306V42H124.792V27.9801H119.38ZM138.857 38.2926L146.741 25.6364H149.638V42H147.124V29.3438L139.283 42H136.343V25.6364H138.857V38.2926Z" fill="white"/>
</svg>
