<svg width="242" height="59" viewBox="0 0 242 59" fill="none" xmlns="http://www.w3.org/2000/svg">
<rect x="0.969604" width="241.03" height="59" rx="29.5" fill="#ED7D31"/>
<path d="M28.6089 41V19.1818H35.9811C37.6927 19.1818 39.0919 19.4908 40.1785 20.1087C41.2723 20.7195 42.0819 21.5469 42.6075 22.5909C43.1331 23.6349 43.3958 24.7997 43.3958 26.0852C43.3958 27.3707 43.1331 28.5391 42.6075 29.5902C42.089 30.6413 41.2865 31.4794 40.1998 32.1044C39.1132 32.7223 37.7211 33.0312 36.0237 33.0312H30.7396V30.6875H35.9384C37.1103 30.6875 38.0514 30.4851 38.7616 30.0803C39.4718 29.6754 39.9867 29.1286 40.3063 28.4396C40.6331 27.7436 40.7964 26.9588 40.7964 26.0852C40.7964 25.2116 40.6331 24.4304 40.3063 23.7415C39.9867 23.0526 39.4683 22.5128 38.7509 22.1222C38.0336 21.7244 37.0819 21.5256 35.8958 21.5256H31.2509V41H28.6089ZM53.996 41.3409C52.4193 41.3409 51.0592 40.9929 49.9157 40.2969C48.7794 39.5938 47.9022 38.6136 47.2843 37.3565C46.6735 36.0923 46.3681 34.6222 46.3681 32.946C46.3681 31.2699 46.6735 29.7926 47.2843 28.5142C47.9022 27.2287 48.7616 26.2273 49.8625 25.5099C50.9704 24.7855 52.263 24.4233 53.7403 24.4233C54.5926 24.4233 55.4342 24.5653 56.2652 24.8494C57.0961 25.1335 57.8525 25.5952 58.5343 26.2344C59.2161 26.8665 59.7595 27.7045 60.1643 28.7486C60.5691 29.7926 60.7715 31.0781 60.7715 32.6051V33.6705H48.1579V31.4972H58.2147C58.2147 30.5739 58.0301 29.75 57.6608 29.0256C57.2985 28.3011 56.7801 27.7294 56.1054 27.3104C55.4377 26.8913 54.6494 26.6818 53.7403 26.6818C52.7389 26.6818 51.8724 26.9304 51.1409 27.4276C50.4164 27.9176 49.8589 28.5568 49.4683 29.3452C49.0777 30.1335 48.8823 30.9787 48.8823 31.8807V33.3295C48.8823 34.5653 49.0954 35.6129 49.5215 36.4723C49.9548 37.3246 50.5549 37.9744 51.322 38.4219C52.089 38.8622 52.9804 39.0824 53.996 39.0824C54.6565 39.0824 55.2531 38.9901 55.7858 38.8054C56.3255 38.6136 56.7907 38.3295 57.1813 37.9531C57.572 37.5696 57.8738 37.0937 58.0869 36.5256L60.5159 37.2074C60.2602 38.0312 59.8305 38.7557 59.2268 39.3807C58.6231 39.9986 57.8774 40.4815 56.9896 40.8295C56.1018 41.1705 55.1039 41.3409 53.996 41.3409ZM74.6956 24.6364V26.9801H67.1103V41H64.5961V24.6364H74.6956ZM80.8799 37.2926L88.7634 24.6364H91.6611V41H89.1469V28.3438L81.306 41H78.3657V24.6364H80.8799V37.2926ZM102.914 41.3409C101.38 41.3409 100.059 40.9787 98.9507 40.2543C97.8427 39.5298 96.9905 38.532 96.3939 37.2607C95.7973 35.9893 95.499 34.5369 95.499 32.9034C95.499 31.2415 95.8044 29.7749 96.4152 28.5036C97.0331 27.2251 97.8925 26.2273 98.9933 25.5099C100.101 24.7855 101.394 24.4233 102.871 24.4233C104.022 24.4233 105.059 24.6364 105.982 25.0625C106.905 25.4886 107.662 26.0852 108.251 26.8523C108.841 27.6193 109.206 28.5142 109.348 29.5369H106.834C106.642 28.7912 106.216 28.1307 105.556 27.5554C104.902 26.973 104.022 26.6818 102.914 26.6818C101.934 26.6818 101.074 26.9375 100.336 27.4489C99.6041 27.9531 99.0324 28.6669 98.6204 29.5902C98.2156 30.5064 98.0132 31.5824 98.0132 32.8182C98.0132 34.0824 98.2121 35.1832 98.6098 36.1207C99.0146 37.0582 99.5828 37.7862 100.314 38.3047C101.053 38.8232 101.919 39.0824 102.914 39.0824C103.567 39.0824 104.16 38.9688 104.693 38.7415C105.226 38.5142 105.677 38.1875 106.046 37.7614C106.415 37.3352 106.678 36.8239 106.834 36.2273H109.348C109.206 37.1932 108.855 38.0632 108.294 38.8374C107.74 39.6044 107.005 40.2152 106.088 40.6697C105.179 41.1172 104.121 41.3409 102.914 41.3409ZM111.735 26.9801V24.6364H125.03V26.9801H119.661V41H117.147V26.9801H111.735ZM128.698 47.1364V24.6364H131.127V27.2358H131.425C131.61 26.9517 131.865 26.5895 132.192 26.1491C132.526 25.7017 133.002 25.304 133.62 24.956C134.245 24.6009 135.09 24.4233 136.155 24.4233C137.533 24.4233 138.747 24.7678 139.799 25.4567C140.85 26.1456 141.67 27.1222 142.259 28.3864C142.849 29.6506 143.144 31.142 143.144 32.8608C143.144 34.5938 142.849 36.0959 142.259 37.3672C141.67 38.6314 140.853 39.6115 139.809 40.3075C138.765 40.9964 137.561 41.3409 136.198 41.3409C135.147 41.3409 134.305 41.1669 133.673 40.8189C133.041 40.4638 132.554 40.0625 132.213 39.6151C131.872 39.1605 131.61 38.7841 131.425 38.4858H131.212V47.1364H128.698ZM131.169 32.8182C131.169 34.054 131.35 35.1442 131.713 36.0888C132.075 37.0263 132.604 37.7614 133.3 38.294C133.996 38.8196 134.848 39.0824 135.857 39.0824C136.908 39.0824 137.785 38.8054 138.488 38.2514C139.198 37.6903 139.731 36.9375 140.086 35.9929C140.448 35.0412 140.63 33.983 140.63 32.8182C140.63 31.6676 140.452 30.6307 140.097 29.7074C139.749 28.777 139.22 28.0419 138.509 27.5021C137.806 26.9553 136.922 26.6818 135.857 26.6818C134.834 26.6818 133.975 26.9411 133.279 27.4595C132.583 27.9709 132.057 28.6882 131.702 29.6115C131.347 30.5277 131.169 31.5966 131.169 32.8182ZM151.794 41.3835C150.757 41.3835 149.816 41.1882 148.971 40.7976C148.126 40.3999 147.455 39.8281 146.958 39.0824C146.46 38.3295 146.212 37.4205 146.212 36.3551C146.212 35.4176 146.397 34.6577 146.766 34.0753C147.135 33.4858 147.629 33.0241 148.247 32.6903C148.865 32.3565 149.546 32.108 150.292 31.9446C151.045 31.7741 151.801 31.6392 152.561 31.5398C153.556 31.4119 154.362 31.3161 154.98 31.2521C155.605 31.1811 156.059 31.0639 156.343 30.9006C156.634 30.7372 156.78 30.4531 156.78 30.0483V29.9631C156.78 28.9119 156.492 28.0952 155.917 27.5128C155.349 26.9304 154.486 26.6392 153.328 26.6392C152.128 26.6392 151.187 26.902 150.505 27.4276C149.823 27.9531 149.344 28.5142 149.067 29.1108L146.681 28.2585C147.107 27.2642 147.675 26.4901 148.385 25.9361C149.103 25.375 149.884 24.9844 150.729 24.7642C151.581 24.5369 152.419 24.4233 153.243 24.4233C153.769 24.4233 154.372 24.4872 155.054 24.6151C155.743 24.7358 156.407 24.9879 157.046 25.3714C157.693 25.755 158.229 26.3338 158.655 27.108C159.081 27.8821 159.294 28.919 159.294 30.2188V41H156.78V38.7841H156.652C156.482 39.1392 156.198 39.5192 155.8 39.924C155.402 40.3288 154.873 40.6733 154.213 40.9574C153.552 41.2415 152.746 41.3835 151.794 41.3835ZM152.178 39.125C153.172 39.125 154.01 38.9297 154.692 38.5391C155.381 38.1484 155.899 37.6442 156.247 37.0263C156.603 36.4084 156.78 35.7585 156.78 35.0767V32.7756C156.674 32.9034 156.439 33.0206 156.077 33.1271C155.722 33.2266 155.31 33.3153 154.841 33.3935C154.38 33.4645 153.929 33.5284 153.488 33.5852C153.055 33.6349 152.703 33.6776 152.433 33.7131C151.78 33.7983 151.169 33.9368 150.601 34.1286C150.04 34.3132 149.585 34.5937 149.237 34.9702C148.897 35.3395 148.726 35.8437 148.726 36.483C148.726 37.3565 149.049 38.017 149.696 38.4645C150.349 38.9048 151.176 39.125 152.178 39.125ZM176.753 24.6364V38.6562H179.054V46.2841H176.539V41H163.883V24.6364H166.397V38.6562H174.238V24.6364H176.753ZM185.44 37.2926L193.324 24.6364H196.222V41H193.707V28.3438L185.867 41H182.926V24.6364H185.44V37.2926ZM210.67 41V26.9375H206.324C205.344 26.9375 204.573 27.1648 204.012 27.6193C203.451 28.0739 203.17 28.6989 203.17 29.4943C203.17 30.2756 203.422 30.8899 203.927 31.3374C204.438 31.7848 205.138 32.0085 206.025 32.0085H211.31V34.3523H206.025C204.917 34.3523 203.962 34.157 203.16 33.7663C202.357 33.3757 201.739 32.8182 201.306 32.0938C200.873 31.3622 200.656 30.4957 200.656 29.4943C200.656 28.4858 200.883 27.6193 201.338 26.8949C201.792 26.1705 202.442 25.6129 203.288 25.2223C204.14 24.8317 205.152 24.6364 206.324 24.6364H213.057V41H210.67ZM199.761 41L204.406 32.8608H207.133L202.489 41H199.761Z" fill="white"/>
</svg>
