<svg width="797" height="57" viewBox="0 0 797 57" fill="none" xmlns="http://www.w3.org/2000/svg">
<path d="M62.93 3.36H83.825V8.155H78.925L62.895 56H56.63L40.39 8.155L44.94 14.735H40.005L44.59 8.155L28.07 56H21.91L5.88 8.155H0.98V3.36H21.805V8.155H11.27L27.055 56L22.365 49.595H27.475L23.065 56L39.725 8.155H30.625V3.36H54.355V8.155H45.57L61.985 56L57.26 49.595H62.37L57.995 56L73.92 8.155H62.93V3.36ZM101.297 56.665C97.4466 56.665 94.1099 55.8483 91.2866 54.215C88.4632 52.5817 86.2816 50.33 84.7416 47.46C83.2016 44.5667 82.4316 41.2417 82.4316 37.485C82.4316 33.6817 83.2016 30.3217 84.7416 27.405C86.3049 24.4883 88.4749 22.2017 91.2516 20.545C94.0516 18.8883 97.3066 18.06 101.017 18.06C104.75 18.06 107.982 18.8767 110.712 20.51C113.442 22.1433 115.542 24.4067 117.012 27.3C118.482 30.1933 119.217 33.53 119.217 37.31C119.217 37.7533 119.205 38.1033 119.182 38.36C119.182 38.6167 119.158 38.8383 119.112 39.025H114.142C114.165 38.745 114.177 38.4417 114.177 38.115C114.2 37.765 114.212 37.3683 114.212 36.925C114.212 34.1483 113.675 31.6867 112.602 29.54C111.552 27.37 110.047 25.6667 108.087 24.43C106.127 23.1933 103.77 22.575 101.017 22.575C98.3332 22.575 95.9766 23.2167 93.9466 24.5C91.9166 25.76 90.3416 27.51 89.2216 29.75C88.1016 31.9667 87.5416 34.545 87.5416 37.485C87.5416 40.3317 88.0899 42.8517 89.1866 45.045C90.3066 47.215 91.8932 48.9183 93.9466 50.155C95.9999 51.3917 98.4382 52.01 101.262 52.01C104.202 52.01 106.745 51.3217 108.892 49.945C111.062 48.545 112.672 46.6433 113.722 44.24L118.482 46.025C117.105 49.315 114.9 51.9167 111.867 53.83C108.857 55.72 105.333 56.665 101.297 56.665ZM85.6166 39.025V35.14H117.607L119.077 39.025H85.6166ZM137.041 51.66H144.706V56H124.336V51.66H132.001V5.04H124.336V0.699998H137.041V51.66ZM169.047 56.665C165.174 56.665 161.802 55.8483 158.932 54.215C156.086 52.5817 153.869 50.33 152.282 47.46C150.719 44.5667 149.937 41.2417 149.937 37.485C149.937 34.6383 150.369 32.0367 151.232 29.68C152.096 27.3 153.332 25.2467 154.942 23.52C156.552 21.77 158.466 20.4283 160.682 19.495C162.899 18.5383 165.372 18.06 168.102 18.06C170.739 18.06 172.932 18.4917 174.682 19.355C176.456 20.195 177.832 21.3617 178.812 22.855C179.792 24.325 180.422 26.0167 180.702 27.93H181.927L180.912 33.215C180.609 31.115 179.921 29.2717 178.847 27.685C177.774 26.075 176.374 24.8267 174.647 23.94C172.921 23.03 170.926 22.575 168.662 22.575C165.956 22.575 163.576 23.2167 161.522 24.5C159.492 25.76 157.906 27.51 156.762 29.75C155.642 31.9667 155.082 34.545 155.082 37.485C155.082 40.3317 155.654 42.8517 156.797 45.045C157.964 47.215 159.586 48.9183 161.662 50.155C163.762 51.3917 166.236 52.01 169.082 52.01C172.022 52.01 174.554 51.3683 176.677 50.085C178.801 48.7783 180.352 47.0283 181.332 44.835L185.987 46.9C184.657 49.91 182.522 52.29 179.582 54.04C176.666 55.79 173.154 56.665 169.047 56.665ZM180.912 33.215V18.725H185.952V33.215H180.912ZM212.972 56.665C209.099 56.665 205.704 55.8483 202.787 54.215C199.871 52.5583 197.596 50.295 195.962 47.425C194.329 44.555 193.512 41.2417 193.512 37.485C193.512 33.705 194.329 30.3567 195.962 27.44C197.596 24.5 199.871 22.2017 202.787 20.545C205.704 18.8883 209.099 18.06 212.972 18.06C216.846 18.06 220.241 18.8883 223.157 20.545C226.074 22.2017 228.349 24.5 229.982 27.44C231.616 30.3567 232.432 33.705 232.432 37.485C232.432 41.2417 231.616 44.555 229.982 47.425C228.349 50.295 226.074 52.5583 223.157 54.215C220.241 55.8483 216.846 56.665 212.972 56.665ZM212.972 52.01C215.772 52.01 218.234 51.4033 220.357 50.19C222.504 48.9767 224.172 47.285 225.362 45.115C226.576 42.9217 227.182 40.3783 227.182 37.485C227.182 34.5683 226.576 32.0017 225.362 29.785C224.172 27.5683 222.504 25.8417 220.357 24.605C218.234 23.345 215.772 22.715 212.972 22.715C210.172 22.715 207.699 23.345 205.552 24.605C203.429 25.8417 201.761 27.5683 200.547 29.785C199.357 32.0017 198.762 34.5683 198.762 37.485C198.762 40.3783 199.357 42.9217 200.547 45.115C201.761 47.285 203.429 48.9767 205.552 50.19C207.699 51.4033 210.172 52.01 212.972 52.01ZM291.235 56V51.66H297.815V32.095C297.815 29.0383 297.138 26.6467 295.785 24.92C294.432 23.1933 292.32 22.33 289.45 22.33C287.14 22.33 285.087 22.9367 283.29 24.15C281.493 25.3633 280.082 27.1017 279.055 29.365C278.028 31.6283 277.515 34.3467 277.515 37.52L276.29 30.03H277.725C278.308 25.97 279.813 22.9367 282.24 20.93C284.69 18.9233 287.665 17.92 291.165 17.92C295.108 17.92 298.037 19.0867 299.95 21.42C301.887 23.7533 302.855 27.0433 302.855 31.29V51.66H309.995V56H291.235ZM239.645 56V51.66H247.1V23.065H239.645V18.725H252.14V51.66H258.755V56H239.645ZM265.895 56V51.66H272.475V32.095C272.475 29.0383 271.798 26.6467 270.445 24.92C269.092 23.1933 266.98 22.33 264.11 22.33C261.8 22.33 259.747 22.9367 257.95 24.15C256.153 25.3633 254.73 27.1017 253.68 29.365C252.653 31.6283 252.14 34.3467 252.14 37.52L250.95 30.03H252.385C252.945 25.97 254.45 22.9367 256.9 20.93C259.35 18.9233 262.325 17.92 265.825 17.92C269.768 17.92 272.697 19.0867 274.61 21.42C276.547 23.7533 277.515 27.0433 277.515 31.29V51.66H284.655V56H265.895ZM334.197 56.665C330.347 56.665 327.01 55.8483 324.187 54.215C321.364 52.5817 319.182 50.33 317.642 47.46C316.102 44.5667 315.332 41.2417 315.332 37.485C315.332 33.6817 316.102 30.3217 317.642 27.405C319.205 24.4883 321.375 22.2017 324.152 20.545C326.952 18.8883 330.207 18.06 333.917 18.06C337.65 18.06 340.882 18.8767 343.612 20.51C346.342 22.1433 348.442 24.4067 349.912 27.3C351.382 30.1933 352.117 33.53 352.117 37.31C352.117 37.7533 352.105 38.1033 352.082 38.36C352.082 38.6167 352.059 38.8383 352.012 39.025H347.042C347.065 38.745 347.077 38.4417 347.077 38.115C347.1 37.765 347.112 37.3683 347.112 36.925C347.112 34.1483 346.575 31.6867 345.502 29.54C344.452 27.37 342.947 25.6667 340.987 24.43C339.027 23.1933 336.67 22.575 333.917 22.575C331.234 22.575 328.877 23.2167 326.847 24.5C324.817 25.76 323.242 27.51 322.122 29.75C321.002 31.9667 320.442 34.545 320.442 37.485C320.442 40.3317 320.99 42.8517 322.087 45.045C323.207 47.215 324.794 48.9183 326.847 50.155C328.9 51.3917 331.339 52.01 334.162 52.01C337.102 52.01 339.645 51.3217 341.792 49.945C343.962 48.545 345.572 46.6433 346.622 44.24L351.382 46.025C350.005 49.315 347.8 51.9167 344.767 53.83C341.757 55.72 338.234 56.665 334.197 56.665ZM318.517 39.025V35.14H350.507L351.977 39.025H318.517ZM390.304 46.13C390.304 48.09 390.677 49.5717 391.424 50.575C392.17 51.555 393.314 52.045 394.854 52.045C396.37 52.045 397.514 51.5433 398.284 50.54C399.054 49.5133 399.439 48.0433 399.439 46.13V42.665H403.989V46.095C403.989 48.335 403.65 50.2483 402.974 51.835C402.32 53.3983 401.317 54.6 399.964 55.44C398.61 56.2567 396.872 56.665 394.749 56.665C392.579 56.665 390.794 56.245 389.394 55.405C387.994 54.5417 386.955 53.3283 386.279 51.765C385.602 50.2017 385.264 48.3233 385.264 46.13L385.299 23.065H378.649V18.725H385.299V9.275H390.339V18.725H403.499L403.464 23.065H390.339L390.304 46.13ZM430.082 56.665C426.208 56.665 422.813 55.8483 419.897 54.215C416.98 52.5583 414.705 50.295 413.072 47.425C411.438 44.555 410.622 41.2417 410.622 37.485C410.622 33.705 411.438 30.3567 413.072 27.44C414.705 24.5 416.98 22.2017 419.897 20.545C422.813 18.8883 426.208 18.06 430.082 18.06C433.955 18.06 437.35 18.8883 440.267 20.545C443.183 22.2017 445.458 24.5 447.092 27.44C448.725 30.3567 449.542 33.705 449.542 37.485C449.542 41.2417 448.725 44.555 447.092 47.425C445.458 50.295 443.183 52.5583 440.267 54.215C437.35 55.8483 433.955 56.665 430.082 56.665ZM430.082 52.01C432.882 52.01 435.343 51.4033 437.467 50.19C439.613 48.9767 441.282 47.285 442.472 45.115C443.685 42.9217 444.292 40.3783 444.292 37.485C444.292 34.5683 443.685 32.0017 442.472 29.785C441.282 27.5683 439.613 25.8417 437.467 24.605C435.343 23.345 432.882 22.715 430.082 22.715C427.282 22.715 424.808 23.345 422.662 24.605C420.538 25.8417 418.87 27.5683 417.657 29.785C416.467 32.0017 415.872 34.5683 415.872 37.485C415.872 40.3783 416.467 42.9217 417.657 45.115C418.87 47.285 420.538 48.9767 422.662 50.19C424.808 51.4033 427.282 52.01 430.082 52.01ZM487.989 46.13C487.989 48.09 488.362 49.5717 489.109 50.575C489.856 51.555 490.999 52.045 492.539 52.045C494.056 52.045 495.199 51.5433 495.969 50.54C496.739 49.5133 497.124 48.0433 497.124 46.13V42.665H501.674V46.095C501.674 48.335 501.336 50.2483 500.659 51.835C500.006 53.3983 499.002 54.6 497.649 55.44C496.296 56.2567 494.557 56.665 492.434 56.665C490.264 56.665 488.479 56.245 487.079 55.405C485.679 54.5417 484.641 53.3283 483.964 51.765C483.287 50.2017 482.949 48.3233 482.949 46.13L482.984 23.065H476.334V18.725H482.984V9.275H488.024V18.725H501.184L501.149 23.065H488.024L487.989 46.13ZM519.132 51.66H525.747V56H506.602V51.66H514.092V5.04H506.602V0.699998H519.132V51.66ZM540.622 51.66V32.06C540.622 29.0267 539.934 26.6467 538.557 24.92C537.204 23.1933 535.069 22.33 532.152 22.33C529.702 22.33 527.497 22.96 525.537 24.22C523.577 25.4567 522.014 27.265 520.847 29.645C519.704 32.0017 519.132 34.8483 519.132 38.185L517.942 30.73H519.342C519.809 28 520.684 25.69 521.967 23.8C523.274 21.8867 524.93 20.4283 526.937 19.425C528.944 18.4217 531.242 17.92 533.832 17.92C537.892 17.92 540.879 19.0867 542.792 21.42C544.705 23.7533 545.662 27.0317 545.662 31.255V51.66H552.802V56H534.042V51.66H540.622ZM577.009 56.665C573.159 56.665 569.823 55.8483 566.999 54.215C564.176 52.5817 561.994 50.33 560.454 47.46C558.914 44.5667 558.144 41.2417 558.144 37.485C558.144 33.6817 558.914 30.3217 560.454 27.405C562.018 24.4883 564.188 22.2017 566.964 20.545C569.764 18.8883 573.019 18.06 576.729 18.06C580.463 18.06 583.694 18.8767 586.424 20.51C589.154 22.1433 591.254 24.4067 592.724 27.3C594.194 30.1933 594.929 33.53 594.929 37.31C594.929 37.7533 594.918 38.1033 594.894 38.36C594.894 38.6167 594.871 38.8383 594.824 39.025H589.854C589.878 38.745 589.889 38.4417 589.889 38.115C589.913 37.765 589.924 37.3683 589.924 36.925C589.924 34.1483 589.388 31.6867 588.314 29.54C587.264 27.37 585.759 25.6667 583.799 24.43C581.839 23.1933 579.483 22.575 576.729 22.575C574.046 22.575 571.689 23.2167 569.659 24.5C567.629 25.76 566.054 27.51 564.934 29.75C563.814 31.9667 563.254 34.545 563.254 37.485C563.254 40.3317 563.803 42.8517 564.899 45.045C566.019 47.215 567.606 48.9183 569.659 50.155C571.713 51.3917 574.151 52.01 576.974 52.01C579.914 52.01 582.458 51.3217 584.604 49.945C586.774 48.545 588.384 46.6433 589.434 44.24L594.194 46.025C592.818 49.315 590.613 51.9167 587.579 53.83C584.569 55.72 581.046 56.665 577.009 56.665ZM561.329 39.025V35.14H593.319L594.789 39.025H561.329ZM649.496 56.735C645.646 56.735 642.111 56.07 638.891 54.74C635.671 53.41 632.883 51.5317 630.526 49.105C628.169 46.6783 626.338 43.8083 625.031 40.495C623.748 37.1583 623.106 33.5067 623.106 29.54C623.106 25.5967 623.736 21.98 624.996 18.69C626.256 15.4 628.053 12.565 630.386 10.185C632.743 7.805 635.531 5.96166 638.751 4.655C641.971 3.325 645.518 2.66 649.391 2.66C653.194 2.66 656.484 3.29 659.261 4.55C662.038 5.81 664.278 7.60667 665.981 9.94C667.708 12.2733 668.886 15.0617 669.516 18.305H671.196L669.761 24.01C668.688 18.9233 666.354 14.9567 662.761 12.11C659.168 9.24 654.758 7.805 649.531 7.805C645.378 7.805 641.738 8.72666 638.611 10.57C635.484 12.39 633.046 14.9333 631.296 18.2C629.546 21.4667 628.671 25.2467 628.671 29.54C628.671 32.7833 629.184 35.7583 630.211 38.465C631.238 41.1717 632.673 43.505 634.516 45.465C636.359 47.425 638.553 48.9417 641.096 50.015C643.639 51.065 646.439 51.59 649.496 51.59C652.949 51.59 656.076 50.9133 658.876 49.56C661.676 48.2067 663.998 46.2933 665.841 43.82C667.708 41.3233 668.979 38.4183 669.656 35.105L675.046 36.225C674.206 40.355 672.608 43.96 670.251 47.04C667.894 50.12 664.943 52.5117 661.396 54.215C657.873 55.895 653.906 56.735 649.496 56.735ZM669.761 24.01V3.36H674.976V24.01H669.761ZM693.145 51.66H700.81V56H680.44V51.66H688.105V5.04H680.44V0.699998H693.145V51.66ZM736.998 23.065H729.788V18.725H742.038V51.66H749.318V56H736.998V23.065ZM716.173 18.725V42.49C716.173 45.5467 716.849 47.9617 718.203 49.735C719.579 51.485 721.738 52.36 724.678 52.36C727.034 52.36 729.134 51.765 730.978 50.575C732.844 49.3617 734.314 47.6233 735.388 45.36C736.461 43.0967 736.998 40.3783 736.998 37.205L738.223 44.66H736.753C736.123 48.6733 734.559 51.7067 732.063 53.76C729.589 55.79 726.544 56.805 722.928 56.805C718.914 56.805 715.939 55.615 714.003 53.235C712.089 50.855 711.133 47.5533 711.133 43.33V23.065H704.378V18.725H716.173ZM758.725 56.77V5.04H751.235V0.699998H763.765V31.78L763.555 36.155V40.81L763.765 47.6L759.18 56.77H758.725ZM777.59 56.7C774.463 56.7 771.663 56.1167 769.19 54.95C766.74 53.76 764.71 52.08 763.1 49.91C761.513 47.7167 760.451 45.115 759.915 42.105L763.555 37.38C763.555 40.25 764.103 42.7933 765.2 45.01C766.296 47.2267 767.871 48.9767 769.925 50.26C771.978 51.52 774.416 52.15 777.24 52.15C780.11 52.15 782.56 51.5317 784.59 50.295C786.643 49.0583 788.206 47.3317 789.28 45.115C790.376 42.875 790.925 40.2733 790.925 37.31C790.925 34.4167 790.341 31.8617 789.175 29.645C788.031 27.4283 786.433 25.69 784.38 24.43C782.326 23.17 779.946 22.54 777.24 22.54C774.463 22.54 772.048 23.17 769.995 24.43C767.941 25.69 766.355 27.4283 765.235 29.645C764.115 31.8617 763.555 34.44 763.555 37.38L762.75 29.505H763.94C764.383 27.4517 765.2 25.5617 766.39 23.835C767.603 22.085 769.201 20.685 771.185 19.635C773.191 18.5617 775.583 18.025 778.36 18.025C780.95 18.025 783.33 18.5033 785.5 19.46C787.67 20.3933 789.548 21.735 791.135 23.485C792.721 25.2117 793.946 27.265 794.81 29.645C795.673 32.0017 796.105 34.5917 796.105 37.415C796.105 41.1717 795.335 44.5083 793.795 47.425C792.278 50.3183 790.131 52.5933 787.355 54.25C784.578 55.8833 781.323 56.7 777.59 56.7Z" fill="white"/>
</svg>
